# xmcd
#
# Track frame offsets: 
#        150
#        18893
#        40446
#        56462
#
# Disc length: 963 seconds
#
# Revision: 1
# Processed by: cddbd v1.5.2PL0 Copyright (c) Steve Scherf et al.
# Submitted via: ExactAudioCopy v0.90b3
#
DISCID=2903c104
DTITLE=UTE FREUDENBERG =Wolken ziehen weiter
DYEAR=1998
DGENRE=Schlager
TTITLE0=Wolken ziehen weiter [1998]
TTITLE1=Ein Tag wie heut' [1998]
TTITLE2=Wie Feuer und Eis [1998]
TTITLE3=Ich geh meinen Weg [1998]
EXTD=YEAR: 2006
EXTT0=
EXTT1=
EXTT2=
EXTT3=
PLAYORDER=
